<mxfile host="app.diagrams.net" agent="Mozilla/5.0 (Windows NT 10.0; Win64; x64) AppleWebKit/537.36 (KHTML, like Gecko) Chrome/131.0.0.0 Safari/537.36" version="26.0.5">
  <diagram name="Pagina-1" id="4tZt_NhNlfAzt6meS1XW">
    <mxGraphModel dx="1434" dy="746" grid="1" gridSize="10" guides="1" tooltips="1" connect="1" arrows="1" fold="1" page="1" pageScale="1" pageWidth="827" pageHeight="1169" math="0" shadow="0">
      <root>
        <mxCell id="0" />
        <mxCell id="1" parent="0" />
        <mxCell id="Jw-5Fzuu9ZcGU-8pzG4B-3" value="" style="edgeStyle=orthogonalEdgeStyle;rounded=0;orthogonalLoop=1;jettySize=auto;html=1;" edge="1" parent="1" source="Jw-5Fzuu9ZcGU-8pzG4B-1" target="Jw-5Fzuu9ZcGU-8pzG4B-2">
          <mxGeometry relative="1" as="geometry" />
        </mxCell>
        <mxCell id="Jw-5Fzuu9ZcGU-8pzG4B-18" style="edgeStyle=none;rounded=0;orthogonalLoop=1;jettySize=auto;html=1;exitX=0.5;exitY=0.5;exitDx=0;exitDy=0;exitPerimeter=0;entryX=0;entryY=0.5;entryDx=0;entryDy=0;" edge="1" parent="1" source="Jw-5Fzuu9ZcGU-8pzG4B-1" target="Jw-5Fzuu9ZcGU-8pzG4B-6">
          <mxGeometry relative="1" as="geometry" />
        </mxCell>
        <mxCell id="Jw-5Fzuu9ZcGU-8pzG4B-19" style="edgeStyle=none;rounded=0;orthogonalLoop=1;jettySize=auto;html=1;exitX=0.5;exitY=0.5;exitDx=0;exitDy=0;exitPerimeter=0;entryX=0;entryY=0.5;entryDx=0;entryDy=0;" edge="1" parent="1" source="Jw-5Fzuu9ZcGU-8pzG4B-1" target="Jw-5Fzuu9ZcGU-8pzG4B-7">
          <mxGeometry relative="1" as="geometry" />
        </mxCell>
        <mxCell id="Jw-5Fzuu9ZcGU-8pzG4B-23" style="edgeStyle=none;rounded=0;orthogonalLoop=1;jettySize=auto;html=1;exitX=0.5;exitY=0.5;exitDx=0;exitDy=0;exitPerimeter=0;entryX=0;entryY=0.5;entryDx=0;entryDy=0;" edge="1" parent="1" source="Jw-5Fzuu9ZcGU-8pzG4B-1" target="Jw-5Fzuu9ZcGU-8pzG4B-5">
          <mxGeometry relative="1" as="geometry" />
        </mxCell>
        <mxCell id="Jw-5Fzuu9ZcGU-8pzG4B-1" value="Visitor" style="shape=umlActor;verticalLabelPosition=bottom;verticalAlign=top;html=1;outlineConnect=0;" vertex="1" parent="1">
          <mxGeometry x="90" y="180" width="30" height="60" as="geometry" />
        </mxCell>
        <mxCell id="Jw-5Fzuu9ZcGU-8pzG4B-25" style="edgeStyle=none;rounded=0;orthogonalLoop=1;jettySize=auto;html=1;exitX=0.5;exitY=0.5;exitDx=0;exitDy=0;exitPerimeter=0;entryX=0;entryY=0.5;entryDx=0;entryDy=0;" edge="1" parent="1" source="Jw-5Fzuu9ZcGU-8pzG4B-2" target="Jw-5Fzuu9ZcGU-8pzG4B-12">
          <mxGeometry relative="1" as="geometry" />
        </mxCell>
        <mxCell id="Jw-5Fzuu9ZcGU-8pzG4B-26" style="edgeStyle=none;rounded=0;orthogonalLoop=1;jettySize=auto;html=1;exitX=0.5;exitY=0.5;exitDx=0;exitDy=0;exitPerimeter=0;entryX=0;entryY=0.5;entryDx=0;entryDy=0;" edge="1" parent="1" source="Jw-5Fzuu9ZcGU-8pzG4B-2" target="Jw-5Fzuu9ZcGU-8pzG4B-9">
          <mxGeometry relative="1" as="geometry" />
        </mxCell>
        <mxCell id="Jw-5Fzuu9ZcGU-8pzG4B-2" value="Utilisateur" style="shape=umlActor;verticalLabelPosition=bottom;verticalAlign=top;html=1;outlineConnect=0;" vertex="1" parent="1">
          <mxGeometry x="90" y="350" width="30" height="60" as="geometry" />
        </mxCell>
        <mxCell id="Jw-5Fzuu9ZcGU-8pzG4B-4" value="Admin" style="shape=umlActor;verticalLabelPosition=bottom;verticalAlign=top;html=1;outlineConnect=0;" vertex="1" parent="1">
          <mxGeometry x="90" y="510" width="30" height="60" as="geometry" />
        </mxCell>
        <mxCell id="Jw-5Fzuu9ZcGU-8pzG4B-5" value="voir la carte" style="ellipse;whiteSpace=wrap;html=1;" vertex="1" parent="1">
          <mxGeometry x="240" y="10" width="120" height="40" as="geometry" />
        </mxCell>
        <mxCell id="Jw-5Fzuu9ZcGU-8pzG4B-6" value="choisire un itnirer" style="ellipse;whiteSpace=wrap;html=1;" vertex="1" parent="1">
          <mxGeometry x="240" y="70" width="120" height="40" as="geometry" />
        </mxCell>
        <mxCell id="Jw-5Fzuu9ZcGU-8pzG4B-7" value="choisire un&amp;nbsp;&amp;nbsp;itinÃ©raire" style="ellipse;whiteSpace=wrap;html=1;" vertex="1" parent="1">
          <mxGeometry x="240" y="130" width="120" height="40" as="geometry" />
        </mxCell>
        <mxCell id="Jw-5Fzuu9ZcGU-8pzG4B-8" style="edgeStyle=orthogonalEdgeStyle;rounded=0;orthogonalLoop=1;jettySize=auto;html=1;entryX=0.5;entryY=0;entryDx=0;entryDy=0;entryPerimeter=0;" edge="1" parent="1" source="Jw-5Fzuu9ZcGU-8pzG4B-2" target="Jw-5Fzuu9ZcGU-8pzG4B-4">
          <mxGeometry relative="1" as="geometry" />
        </mxCell>
        <mxCell id="Jw-5Fzuu9ZcGU-8pzG4B-9" value="inscription" style="ellipse;whiteSpace=wrap;html=1;" vertex="1" parent="1">
          <mxGeometry x="240" y="330" width="120" height="40" as="geometry" />
        </mxCell>
        <mxCell id="Jw-5Fzuu9ZcGU-8pzG4B-11" value="valide un alert" style="ellipse;whiteSpace=wrap;html=1;" vertex="1" parent="1">
          <mxGeometry x="250" y="585" width="120" height="40" as="geometry" />
        </mxCell>
        <mxCell id="Jw-5Fzuu9ZcGU-8pzG4B-12" value="connexion" style="ellipse;whiteSpace=wrap;html=1;" vertex="1" parent="1">
          <mxGeometry x="240" y="270" width="120" height="40" as="geometry" />
        </mxCell>
        <mxCell id="Jw-5Fzuu9ZcGU-8pzG4B-28" value="crud alert" style="ellipse;whiteSpace=wrap;html=1;" vertex="1" parent="1">
          <mxGeometry x="240" y="380" width="120" height="40" as="geometry" />
        </mxCell>
        <mxCell id="Jw-5Fzuu9ZcGU-8pzG4B-29" value="inscription" style="ellipse;whiteSpace=wrap;html=1;" vertex="1" parent="1">
          <mxGeometry x="414" y="325" width="120" height="40" as="geometry" />
        </mxCell>
        <mxCell id="Jw-5Fzuu9ZcGU-8pzG4B-30" value="connexion" style="ellipse;whiteSpace=wrap;html=1;" vertex="1" parent="1">
          <mxGeometry x="430" y="220" width="120" height="40" as="geometry" />
        </mxCell>
        <mxCell id="Jw-5Fzuu9ZcGU-8pzG4B-31" value="crud alert" style="ellipse;whiteSpace=wrap;html=1;" vertex="1" parent="1">
          <mxGeometry x="414" y="380" width="120" height="40" as="geometry" />
        </mxCell>
        <mxCell id="Jw-5Fzuu9ZcGU-8pzG4B-32" style="edgeStyle=none;rounded=0;orthogonalLoop=1;jettySize=auto;html=1;exitX=0.5;exitY=0.5;exitDx=0;exitDy=0;exitPerimeter=0;entryX=0.05;entryY=0.775;entryDx=0;entryDy=0;entryPerimeter=0;" edge="1" parent="1" source="Jw-5Fzuu9ZcGU-8pzG4B-2" target="Jw-5Fzuu9ZcGU-8pzG4B-28">
          <mxGeometry relative="1" as="geometry" />
        </mxCell>
      </root>
    </mxGraphModel>
  </diagram>
</mxfile>
